<svg width="211" height="61" viewBox="0 0 211 61" fill="none" xmlns="http://www.w3.org/2000/svg"><rect x=".5" y=".5" width="210" height="60" rx="5.5" fill="#fff" stroke="#000"/><path d="M75.824 17.564c-2.484 0-4.416 1.836-4.416 4.224 0 2.412 1.908 4.272 4.368 4.272 1.188 0 2.4-.54 3.252-1.38l-.84-.936c-.636.612-1.5.996-2.34.996-1.68 0-3-1.308-3-2.964s1.32-2.952 3-2.952c.852 0 1.728.408 2.34 1.068l.828-1.032a4.636 4.636 0 00-3.192-1.296zm7.123 2.004c-1.98 0-3.336 1.308-3.336 3.24 0 1.92 1.356 3.24 3.336 3.24 1.968 0 3.324-1.32 3.324-3.24 0-1.932-1.356-3.24-3.324-3.24zm0 1.188c1.14 0 1.944.84 1.944 2.064 0 1.236-.804 2.076-1.944 2.076-1.152 0-1.956-.84-1.956-2.076 0-1.224.804-2.064 1.956-2.064zm13.092-1.188c-1.164 0-2.016.468-2.424 1.536-.3-.972-1.08-1.536-2.22-1.536-1.056 0-1.872.384-2.316 1.284v-1.236h-1.368V26h1.368v-3.156c0-1.116.672-1.956 1.776-1.992.936 0 1.5.588 1.5 1.56V26h1.38v-3.156c0-1.116.66-1.956 1.752-1.992.936 0 1.512.588 1.512 1.56V26h1.38v-3.972c0-1.524-.876-2.46-2.34-2.46zm4.872-2.616c-.456 0-.804.348-.804.84 0 .48.348.828.804.828.456 0 .804-.348.804-.828 0-.492-.348-.84-.804-.84zm.684 9.048v-6.384h-1.368V26h1.368zm5.774-6.432c-1.08 0-1.896.384-2.352 1.272v-1.224h-1.38V26h1.38v-3.396c.096-.996.756-1.728 1.812-1.74.96 0 1.536.588 1.536 1.548V26h1.38v-3.972c0-1.524-.888-2.46-2.376-2.46zm9.985.048h-1.368v1.032c-.444-.696-1.176-1.092-2.16-1.08-1.692.012-2.832 1.236-2.832 3.036 0 1.836 1.152 3.084 2.88 3.084.96 0 1.68-.384 2.112-1.08v.804c0 1.104-.792 1.812-2.004 1.812-.78 0-1.404-.252-2.004-.696l-.588.996c.78.528 1.656.84 2.652.84 2.004 0 3.312-1.152 3.312-2.988v-5.76zm-3.204 4.992c-1.104 0-1.848-.816-1.86-1.968.012-1.14.768-1.956 1.86-1.956 1.08 0 1.836.804 1.836 1.956s-.756 1.968-1.836 1.968zm11.058-7.068c-1.824 0-3.06.9-3.06 2.34 0 2.988 4.536 1.944 4.536 3.816 0 .648-.588 1.02-1.572 1.02-.9 0-1.98-.432-2.844-1.224l-.612 1.224a5.167 5.167 0 003.432 1.332c1.848 0 3.168-.924 3.168-2.424.012-3.024-4.524-2.04-4.524-3.876 0-.564.54-.876 1.368-.876.636 0 1.548.228 2.46.78l.588-1.248c-.78-.516-1.848-.864-2.94-.864zm7.357 2.028c-1.98 0-3.336 1.308-3.336 3.24 0 1.92 1.356 3.24 3.336 3.24 1.968 0 3.324-1.32 3.324-3.24 0-1.932-1.356-3.24-3.324-3.24zm0 1.188c1.14 0 1.944.84 1.944 2.064 0 1.236-.804 2.076-1.944 2.076-1.152 0-1.956-.84-1.956-2.076 0-1.224.804-2.064 1.956-2.064zm7.5-1.188c-1.98 0-3.336 1.308-3.336 3.24 0 1.92 1.356 3.24 3.336 3.24 1.968 0 3.324-1.32 3.324-3.24 0-1.932-1.356-3.24-3.324-3.24zm0 1.188c1.14 0 1.944.84 1.944 2.064 0 1.236-.804 2.076-1.944 2.076-1.152 0-1.956-.84-1.956-2.076 0-1.224.804-2.064 1.956-2.064zm8.496-1.188c-1.08 0-1.896.384-2.352 1.272v-1.224h-1.38V26h1.38v-3.396c.096-.996.756-1.728 1.812-1.74.96 0 1.536.588 1.536 1.548V26h1.38v-3.972c0-1.524-.888-2.46-2.376-2.46zm10.054 0c-1.98 0-3.336 1.308-3.336 3.24 0 1.92 1.356 3.24 3.336 3.24 1.968 0 3.324-1.32 3.324-3.24 0-1.932-1.356-3.24-3.324-3.24zm0 1.188c1.14 0 1.944.84 1.944 2.064 0 1.236-.804 2.076-1.944 2.076-1.152 0-1.956-.84-1.956-2.076 0-1.224.804-2.064 1.956-2.064zm8.496-1.188c-1.08 0-1.896.384-2.352 1.272v-1.224h-1.38V26h1.38v-3.396c.096-.996.756-1.728 1.812-1.74.96 0 1.536.588 1.536 1.548V26h1.38v-3.972c0-1.524-.888-2.46-2.376-2.46zM80.63 40.678l.9 2.322h3.42l-5.31-12.6h-3.294L70.91 43h3.294l.918-2.322h5.508zm-.936-2.43h-3.636l1.836-4.662 1.8 4.662zm12.502-5.058c-1.224 0-2.214.504-2.898 1.386v-1.278h-3.114v13.194h3.114v-4.788c.684.9 1.71 1.404 2.97 1.404 2.718 0 4.482-1.962 4.482-4.914 0-3.006-1.818-5.004-4.554-5.004zm-.756 7.452c-1.26 0-2.142-1.026-2.142-2.538 0-1.476.882-2.52 2.142-2.52 1.296 0 2.178 1.044 2.178 2.52 0 1.494-.882 2.538-2.178 2.538zm13.078-7.452c-1.224 0-2.214.504-2.898 1.386v-1.278h-3.114v13.194h3.114v-4.788c.684.9 1.71 1.404 2.97 1.404 2.718 0 4.482-1.962 4.482-4.914 0-3.006-1.818-5.004-4.554-5.004zm-.756 7.452c-1.26 0-2.142-1.026-2.142-2.538 0-1.476.882-2.52 2.142-2.52 1.296 0 2.178 1.044 2.178 2.52 0 1.494-.882 2.538-2.178 2.538zm16.02-10.386c-3.024 0-5.022 1.476-5.022 3.798 0 4.464 6.66 3.132 6.66 5.364 0 .72-.63 1.098-1.638 1.098-1.314 0-3.258-.756-4.554-1.89l-1.242 2.466c1.494 1.224 3.654 2.016 5.76 2.016 2.808 0 5.04-1.332 5.04-3.852 0-4.554-6.66-3.312-6.66-5.49 0-.612.558-.918 1.386-.918 1.026 0 2.7.54 4.032 1.314l1.206-2.502c-1.296-.846-3.15-1.404-4.968-1.404zm12.376 10.062c-.468.198-.882.324-1.206.324-.576.018-.9-.306-.9-1.062v-3.798h2.538V33.73h-2.538v-2.682h-3.096v2.7h-1.35v2.034h1.35v4.284c0 2.016 1.35 3.078 3.222 3.078.936 0 1.89-.252 2.592-.666l-.612-2.16zm6.617-7.128c-3.186 0-5.31 1.962-5.31 4.95 0 2.988 2.124 4.968 5.31 4.968 3.168 0 5.292-1.98 5.292-4.968s-2.124-4.95-5.292-4.95zm0 2.466c1.278 0 2.16 1.026 2.16 2.52 0 1.512-.882 2.52-2.16 2.52-1.296 0-2.178-1.008-2.178-2.52 0-1.494.882-2.52 2.178-2.52zm10.075-2.358h-3.114V43h3.114v-4.986c.162-1.368 1.35-2.214 3.15-2.052v-2.808c-1.386.018-2.484.648-3.15 1.782v-1.638zm8.816-.108c-3.006 0-5.058 1.98-5.058 4.986 0 2.952 1.98 4.932 5.148 4.932 1.782 0 3.24-.63 4.23-1.71l-1.638-1.602c-.648.648-1.476.99-2.322.99-1.152 0-1.98-.648-2.286-1.8h6.822c.216-3.546-1.476-5.796-4.896-5.796zm-1.98 4.122c.198-1.17.936-1.962 2.016-1.962 1.116 0 1.872.774 1.872 1.962h-3.888zM44.217 45.668c-4.614-.027-8.43-9.445-8.43-14.241 0-7.835 5.877-9.55 8.142-9.55 1.021 0 2.111.4 3.073.755.672.247 1.367.503 1.754.503.231 0 .777-.217 1.258-.408 1.027-.409 2.305-.917 3.794-.917h.009c1.11 0 4.48.244 6.506 3.286l.475.713-.683.515c-.976.736-2.756 2.08-2.756 4.74 0 3.15 2.016 4.361 2.984 4.944.428.257.87.522.87 1.102 0 .379-3.022 8.511-7.411 8.511-1.075 0-1.834-.323-2.503-.608-.678-.288-1.262-.536-2.228-.536-.49 0-1.109.231-1.764.477-.896.334-1.91.714-3.06.714h-.03z" fill="#000"/><path d="M54.273 15c.114 4.122-2.834 6.981-5.778 6.802C48.01 18.512 51.439 15 54.273 15z" fill="#000"/></svg>