<svg width="213" height="63" viewBox="0 0 213 63" fill="none" xmlns="http://www.w3.org/2000/svg"><rect x="1" y="1" width="211" height="61" rx="6" fill="#000" stroke="#fff"/><g clip-path="url(#clip0)"><path d="M59.876 29.176l-5.25-3.032-7.193 5.374 7.193 5.375 5.268-3.043a2.709 2.709 0 001.312-2.332c0-.96-.49-1.832-1.33-2.342z" fill="url(#paint0_linear)"/><path d="M49.252 31.518l-6.365 8.184-8.274 6.516a2.76 2.76 0 01-.819-1.964V18.738c0-.764.31-1.455.819-1.964l8.274 6.561 6.365 8.183z" fill="url(#paint1_linear)"/><path d="M54.635 26.135l-5.383 5.383-14.64-14.745c.182-.163.364-.29.564-.418a2.693 2.693 0 012.765.055l9.492 5.58 7.202 4.145z" fill="url(#paint2_linear)"/><path d="M54.635 36.901l-7.202 4.146-9.51 5.553c-.437.255-.91.4-1.4.4-.456 0-.91-.127-1.347-.364a4.105 4.105 0 01-.563-.418l14.639-14.7 5.383 5.383z" fill="url(#paint3_linear)"/></g><path d="M78.852 22.872v2.34c-.6.36-1.308.576-1.932.576-1.716 0-3.072-1.308-3.072-2.988 0-1.668 1.344-2.976 3.06-2.976.876 0 1.776.36 2.424.96l.804-1.044c-.828-.72-2.028-1.176-3.228-1.176-2.544 0-4.5 1.836-4.5 4.236 0 2.4 1.932 4.26 4.416 4.26 1.152 0 2.412-.444 3.264-1.092v-3.096h-1.236zm5.784-2.304c-1.896.012-3.228 1.32-3.228 3.252 0 1.92 1.296 3.228 3.264 3.228 1.104 0 2.016-.396 2.64-1.08l-.732-.78a2.482 2.482 0 01-1.8.744c-1.008 0-1.764-.612-1.98-1.596h4.824c.168-2.304-.744-3.768-2.988-3.768zm-1.86 2.76c.156-1.02.864-1.656 1.872-1.656 1.044 0 1.728.624 1.776 1.656h-3.648zm9.551 2.208c-.372.18-.672.276-.96.276-.432 0-.684-.204-.684-.864v-3.06h1.884v-1.032h-1.884v-1.752h-1.368v1.752h-.9v1.032h.9V25.2c0 1.308.828 1.86 1.788 1.86.54 0 1.068-.168 1.572-.468l-.348-1.056zm5.4-7.584c-.456 0-.804.348-.804.84 0 .48.348.828.804.828.456 0 .804-.348.804-.828 0-.492-.348-.84-.804-.84zM98.411 27v-6.384h-1.368V27h1.368zm5.307-1.464c-.372.18-.672.276-.96.276-.432 0-.684-.204-.684-.864v-3.06h1.884v-1.032h-1.884v-1.752h-1.368v1.752h-.9v1.032h.9V25.2c0 1.308.828 1.86 1.788 1.86.54 0 1.068-.168 1.572-.468l-.348-1.056zm7.452-4.968c-1.98 0-3.336 1.308-3.336 3.24 0 1.92 1.356 3.24 3.336 3.24 1.968 0 3.324-1.32 3.324-3.24 0-1.932-1.356-3.24-3.324-3.24zm0 1.188c1.14 0 1.944.84 1.944 2.064 0 1.236-.804 2.076-1.944 2.076-1.152 0-1.956-.84-1.956-2.076 0-1.224.804-2.064 1.956-2.064zm8.496-1.188c-1.08 0-1.896.384-2.352 1.272v-1.224h-1.38V27h1.38v-3.396c.096-.996.756-1.728 1.812-1.74.96 0 1.536.588 1.536 1.548V27h1.38v-3.972c0-1.524-.888-2.46-2.376-2.46zM81.63 37.592v3.258c-.756.378-1.584.612-2.232.612-2.088 0-3.69-1.62-3.69-3.762 0-2.106 1.584-3.726 3.654-3.726 1.17 0 2.448.522 3.366 1.368l1.8-2.178c-1.296-1.152-3.276-1.872-5.148-1.872-3.978 0-6.948 2.754-6.948 6.408 0 3.672 2.898 6.444 6.732 6.444 1.764 0 3.888-.684 5.238-1.638v-4.914H81.63zm9.489-3.402c-3.186 0-5.31 1.962-5.31 4.95 0 2.988 2.124 4.968 5.31 4.968 3.168 0 5.292-1.98 5.292-4.968s-2.124-4.95-5.292-4.95zm0 2.466c1.278 0 2.16 1.026 2.16 2.52 0 1.512-.882 2.52-2.16 2.52-1.296 0-2.178-1.008-2.178-2.52 0-1.494.882-2.52 2.178-2.52zm11.461-2.466c-3.186 0-5.31 1.962-5.31 4.95 0 2.988 2.124 4.968 5.31 4.968 3.168 0 5.292-1.98 5.292-4.968s-2.124-4.95-5.292-4.95zm0 2.466c1.278 0 2.16 1.026 2.16 2.52 0 1.512-.882 2.52-2.16 2.52-1.296 0-2.178-1.008-2.178-2.52 0-1.494.882-2.52 2.178-2.52zm16.231-2.358h-3.096v1.188c-.648-.846-1.62-1.314-2.862-1.296-2.43 0-4.104 1.836-4.104 4.59 0 2.826 1.728 4.698 4.176 4.698 1.206 0 2.16-.468 2.79-1.296v1.026c0 1.206-.9 1.998-2.394 1.998-1.044 0-2.124-.36-3.006-.972l-1.08 2.106c1.098.738 2.628 1.278 4.32 1.278 3.132 0 5.256-1.746 5.256-4.5v-8.82zm-5.112 6.93c-1.224 0-2.052-.972-2.052-2.358 0-1.404.828-2.376 2.052-2.376 1.206 0 2.016.954 2.016 2.376 0 1.386-.81 2.358-2.016 2.358zm10.7 2.772V30.644h-3.114V44h3.114zm6.827-9.81c-3.006 0-5.058 1.98-5.058 4.986 0 2.952 1.98 4.932 5.148 4.932 1.782 0 3.24-.63 4.23-1.71l-1.638-1.602c-.648.648-1.476.99-2.322.99-1.152 0-1.98-.648-2.286-1.8h6.822c.216-3.546-1.476-5.796-4.896-5.796zm-1.98 4.122c.198-1.17.936-1.962 2.016-1.962 1.116 0 1.872.774 1.872 1.962h-3.888zm12.762-6.912V44h3.204v-3.546h2.286c3.222 0 5.076-1.71 5.076-4.662 0-2.808-1.854-4.392-5.076-4.392h-5.49zm3.204 2.52h2.124c1.404 0 2.214.666 2.214 1.98 0 1.332-.81 2.034-2.214 2.034h-2.124V33.92zM157.428 44V30.644h-3.114V44h3.114zm6.936-9.846c-1.62 0-2.988.396-4.5 1.098l.882 2.052c1.026-.522 2.088-.81 2.898-.81 1.26 0 1.89.576 1.89 1.53v.144h-2.556c-2.412.018-3.726 1.098-3.726 2.934 0 1.782 1.26 3.042 3.33 3.042 1.314 0 2.34-.432 2.97-1.26V44h3.042v-6.336c-.018-2.196-1.566-3.51-4.23-3.51zm-.828 7.884c-.864 0-1.368-.45-1.368-1.152 0-.72.468-1.044 1.404-1.044h1.962v.864c-.198.792-1.026 1.332-1.998 1.332zm16.448-7.74h-3.096l-2.106 6.444-2.376-6.444h-3.204l4.032 9.486-.234.486c-.252.522-.648.774-1.206.774-.45 0-.828-.162-1.278-.522l-1.296 2.124c.864.666 1.746.99 2.826.99 1.8 0 3.024-.864 3.744-2.628l4.194-10.71z" fill="#fff"/><defs><linearGradient id="paint0_linear" x1="61" y1="31" x2="49" y2="32" gradientUnits="userSpaceOnUse"><stop stop-color="#FABC86"/><stop offset="1" stop-color="#F9A97C"/></linearGradient><linearGradient id="paint1_linear" x1="41.523" y1="16.774" x2="41.523" y2="46.218" gradientUnits="userSpaceOnUse"><stop stop-color="#27839B"/><stop offset="1" stop-color="#70D3CD"/></linearGradient><linearGradient id="paint2_linear" x1="36" y1="17.5" x2="51.5" y2="27.5" gradientUnits="userSpaceOnUse"><stop stop-color="#63C6B6"/><stop offset="1" stop-color="#A1E3B2"/></linearGradient><linearGradient id="paint3_linear" x1="51.5" y1="33.5" x2="36.5" y2="47" gradientUnits="userSpaceOnUse"><stop stop-color="#DF414D"/><stop offset="1" stop-color="#A34A81"/></linearGradient><clipPath id="clip0"><path fill="#fff" d="M32 16h31v31H32z"/></clipPath></defs></svg>