<svg width="178" height="55" viewBox="0 0 178 55" fill="none" xmlns="http://www.w3.org/2000/svg"><path fill-rule="evenodd" clip-rule="evenodd" d="M.52 46.754V0h20.104c13.474 0 23.13 7.975 24.64 20.011H32.632l-6.416-6.41-15.024.009 9.914 9.904-9.904 9.915 15.024-.008 6.386-6.393H45.22c-1.655 11.828-11.4 19.726-25.065 19.726H.52z" fill="url(#paint0_linear)"/><path d="M55.337 19.6V28h3.527c2.7 0 4.549-1.716 4.549-4.2 0-2.496-1.824-4.2-4.464-4.2h-3.612zm2.135 1.704H58.9c1.357 0 2.34 1.02 2.34 2.508 0 1.476-.936 2.484-2.244 2.484h-1.524v-4.992zM88.8 28h2.424l-1.764-2.772c.984-.492 1.524-1.416 1.524-2.7 0-1.872-1.272-2.928-3.492-2.928h-3.756V28h2.136v-2.364h1.68L88.8 28zm-2.928-4.044V21.28h1.62c.924 0 1.464.444 1.464 1.32 0 .888-.54 1.356-1.464 1.356h-1.62zm29.731-4.428c-2.592 0-4.536 1.812-4.536 4.26 0 2.46 1.944 4.308 4.536 4.308 2.604 0 4.548-1.86 4.548-4.308 0-2.436-1.944-4.26-4.548-4.26zm.024 1.788c1.296 0 2.328 1.068 2.328 2.484s-1.032 2.508-2.328 2.508c-1.284 0-2.376-1.092-2.376-2.508s1.08-2.484 2.376-2.484zM148.228 28v-8.4h-1.992v5.184L142.36 19.6h-1.884V28h2.004v-5.172L146.344 28h1.884zm26.461-1.548l.6 1.548h2.28l-3.54-8.4h-2.196l-3.624 8.4h2.196l.612-1.548h3.672zm-.624-1.62h-2.424l1.224-3.108 1.2 3.108z" fill="#000"/><defs><linearGradient id="paint0_linear" x1="22.995" y1="0" x2="22.995" y2="46.754" gradientUnits="userSpaceOnUse"><stop stop-color="#FF5C00"/><stop offset="1" stop-color="#FF9A03"/></linearGradient></defs></svg>